<svg width="662" height="402" viewBox="0 0 662 402" fill="none" xmlns="http://www.w3.org/2000/svg">
<rect x="165" width="165" height="402" fill="#FF9A00"/>
<rect width="165" height="402" fill="#FFC100"/>
<rect x="330" width="166" height="402" fill="#FF7400"/>
<rect x="496" width="166" height="402" fill="#FF4D00"/>
<path d="M355.04 356L358.64 335H362.87L359.27 356H355.04ZM345.44 351.5V347.63H363.5V351.5H345.44ZM347.18 356L350.78 335H355.01L351.41 356H347.18ZM346.58 343.1V339.23H364.61V343.1H346.58ZM368.671 356V335H373.771V356H368.671ZM371.041 347.96V343.7H381.901V347.96H371.041ZM371.041 339.5V335H383.131V339.5H371.041ZM387.216 356V335H392.316V356H387.216ZM389.586 347.96V343.7H400.446V347.96H389.586ZM389.586 339.5V335H401.676V339.5H389.586ZM405.641 356L414.041 336.86L415.481 339.26H404.501V334.82H418.181L418.661 337.25L410.741 356H405.641ZM429.411 356V339.02L432.141 339.08L424.551 348.38L423.831 347.48H437.751V351.68H421.551L419.511 347.75L430.221 334.82H434.331V356H429.411ZM448.915 356.3C447.035 356.3 445.425 355.87 444.085 355.01C442.765 354.15 441.755 352.92 441.055 351.32C440.355 349.7 440.005 347.76 440.005 345.5C440.005 343.24 440.355 341.31 441.055 339.71C441.755 338.09 442.765 336.85 444.085 335.99C445.425 335.13 447.035 334.7 448.915 334.7C450.795 334.7 452.405 335.13 453.745 335.99C455.085 336.85 456.105 338.09 456.805 339.71C457.505 341.31 457.855 343.24 457.855 345.5C457.855 347.76 457.505 349.7 456.805 351.32C456.105 352.92 455.085 354.15 453.745 355.01C452.405 355.87 450.795 356.3 448.915 356.3ZM448.915 351.98C450.215 351.98 451.215 351.42 451.915 350.3C452.635 349.18 452.995 347.58 452.995 345.5C452.995 343.36 452.635 341.72 451.915 340.58C451.215 339.42 450.215 338.84 448.915 338.84C447.615 338.84 446.605 339.42 445.885 340.58C445.185 341.72 444.835 343.36 444.835 345.5C444.835 347.58 445.185 349.18 445.885 350.3C446.605 351.42 447.615 351.98 448.915 351.98ZM469.159 356.3C467.279 356.3 465.669 355.87 464.329 355.01C463.009 354.15 461.999 352.92 461.299 351.32C460.599 349.7 460.249 347.76 460.249 345.5C460.249 343.24 460.599 341.31 461.299 339.71C461.999 338.09 463.009 336.85 464.329 335.99C465.669 335.13 467.279 334.7 469.159 334.7C471.039 334.7 472.649 335.13 473.989 335.99C475.329 336.85 476.349 338.09 477.049 339.71C477.749 341.31 478.099 343.24 478.099 345.5C478.099 347.76 477.749 349.7 477.049 351.32C476.349 352.92 475.329 354.15 473.989 355.01C472.649 355.87 471.039 356.3 469.159 356.3ZM469.159 351.98C470.459 351.98 471.459 351.42 472.159 350.3C472.879 349.18 473.239 347.58 473.239 345.5C473.239 343.36 472.879 341.72 472.159 340.58C471.459 339.42 470.459 338.84 469.159 338.84C467.859 338.84 466.849 339.42 466.129 340.58C465.429 341.72 465.079 343.36 465.079 345.5C465.079 347.58 465.429 349.18 466.129 350.3C466.849 351.42 467.859 351.98 469.159 351.98Z" fill="white"/>
<path d="M344 359.75H479.299V361.25H344V359.75Z" fill="white"/>
<a href="https://www.color-hex.com/color/ff7400">
<rect fill="black" fill-opacity="0" y="0.25" width="135.299" height="37.5"/>
</a>
<path d="M189.04 356L192.64 335H196.87L193.27 356H189.04ZM179.44 351.5V347.63H197.5V351.5H179.44ZM181.18 356L184.78 335H189.01L185.41 356H181.18ZM180.58 343.1V339.23H198.61V343.1H180.58ZM202.671 356V335H207.771V356H202.671ZM205.041 347.96V343.7H215.901V347.96H205.041ZM205.041 339.5V335H217.131V339.5H205.041ZM221.216 356V335H226.316V356H221.216ZM223.586 347.96V343.7H234.446V347.96H223.586ZM223.586 339.5V335H235.676V339.5H223.586ZM243.361 356L243.241 355.7L249.811 342.44L250.681 344.24C250.481 344.96 250.161 345.61 249.721 346.19C249.281 346.77 248.751 347.28 248.131 347.72C247.531 348.14 246.901 348.47 246.241 348.71C245.581 348.93 244.951 349.04 244.351 349.04C243.211 349.04 242.161 348.73 241.201 348.11C240.241 347.49 239.471 346.66 238.891 345.62C238.311 344.58 238.021 343.45 238.021 342.23C238.021 340.79 238.361 339.49 239.041 338.33C239.741 337.15 240.681 336.22 241.861 335.54C243.041 334.84 244.371 334.49 245.851 334.49C246.931 334.49 247.941 334.68 248.881 335.06C249.821 335.44 250.641 335.97 251.341 336.65C252.061 337.31 252.621 338.08 253.021 338.96C253.421 339.84 253.621 340.77 253.621 341.75C253.621 342.47 253.561 343.18 253.441 343.88C253.321 344.56 253.131 345.26 252.871 345.98C252.611 346.7 252.301 347.45 251.941 348.23C251.601 349.01 251.201 349.86 250.741 350.78L248.101 356H243.361ZM245.581 345.02C246.201 345.02 246.751 344.88 247.231 344.6C247.711 344.32 248.081 343.95 248.341 343.49C248.621 343.01 248.761 342.48 248.761 341.9C248.761 341.28 248.621 340.73 248.341 340.25C248.081 339.75 247.711 339.36 247.231 339.08C246.771 338.8 246.231 338.66 245.611 338.66C245.011 338.66 244.481 338.8 244.021 339.08C243.581 339.34 243.221 339.72 242.941 340.22C242.681 340.7 242.551 341.26 242.551 341.9C242.551 342.44 242.681 342.95 242.941 343.43C243.221 343.89 243.591 344.27 244.051 344.57C244.511 344.87 245.021 345.02 245.581 345.02ZM254.406 356L262.716 335H267.036L275.286 356H270.126L266.166 345.35C266.006 344.93 265.846 344.48 265.686 344C265.526 343.52 265.366 343.03 265.206 342.53C265.046 342.01 264.886 341.51 264.726 341.03C264.586 340.53 264.466 340.07 264.366 339.65L265.266 339.62C265.146 340.12 265.006 340.61 264.846 341.09C264.706 341.57 264.556 342.05 264.396 342.53C264.256 342.99 264.096 343.46 263.916 343.94C263.736 344.4 263.566 344.88 263.406 345.38L259.446 356H254.406ZM258.366 351.98L259.956 348.14H269.616L271.176 351.98H258.366ZM285.376 356.3C283.496 356.3 281.886 355.87 280.546 355.01C279.226 354.15 278.216 352.92 277.516 351.32C276.816 349.7 276.466 347.76 276.466 345.5C276.466 343.24 276.816 341.31 277.516 339.71C278.216 338.09 279.226 336.85 280.546 335.99C281.886 335.13 283.496 334.7 285.376 334.7C287.256 334.7 288.866 335.13 290.206 335.99C291.546 336.85 292.566 338.09 293.266 339.71C293.966 341.31 294.316 343.24 294.316 345.5C294.316 347.76 293.966 349.7 293.266 351.32C292.566 352.92 291.546 354.15 290.206 355.01C288.866 355.87 287.256 356.3 285.376 356.3ZM285.376 351.98C286.676 351.98 287.676 351.42 288.376 350.3C289.096 349.18 289.456 347.58 289.456 345.5C289.456 343.36 289.096 341.72 288.376 340.58C287.676 339.42 286.676 338.84 285.376 338.84C284.076 338.84 283.066 339.42 282.346 340.58C281.646 341.72 281.296 343.36 281.296 345.5C281.296 347.58 281.646 349.18 282.346 350.3C283.066 351.42 284.076 351.98 285.376 351.98ZM305.62 356.3C303.74 356.3 302.13 355.87 300.79 355.01C299.47 354.15 298.46 352.92 297.76 351.32C297.06 349.7 296.71 347.76 296.71 345.5C296.71 343.24 297.06 341.31 297.76 339.71C298.46 338.09 299.47 336.85 300.79 335.99C302.13 335.13 303.74 334.7 305.62 334.7C307.5 334.7 309.11 335.13 310.45 335.99C311.79 336.85 312.81 338.09 313.51 339.71C314.21 341.31 314.56 343.24 314.56 345.5C314.56 347.76 314.21 349.7 313.51 351.32C312.81 352.92 311.79 354.15 310.45 355.01C309.11 355.87 307.5 356.3 305.62 356.3ZM305.62 351.98C306.92 351.98 307.92 351.42 308.62 350.3C309.34 349.18 309.7 347.58 309.7 345.5C309.7 343.36 309.34 341.72 308.62 340.58C307.92 339.42 306.92 338.84 305.62 338.84C304.32 338.84 303.31 339.42 302.59 340.58C301.89 341.72 301.54 343.36 301.54 345.5C301.54 347.58 301.89 349.18 302.59 350.3C303.31 351.42 304.32 351.98 305.62 351.98Z" fill="white"/>
<path d="M178 359.75H315.76V361.25H178V359.75Z" fill="white"/>
<a href="https://www.color-hex.com/color/ff9a00">
<rect fill="black" fill-opacity="0" y="0.25" width="137.76" height="37.5"/>
</a>
<path d="M24.04 356L27.64 335H31.87L28.27 356H24.04ZM14.44 351.5V347.63H32.5V351.5H14.44ZM16.18 356L19.78 335H24.01L20.41 356H16.18ZM15.58 343.1V339.23H33.61V343.1H15.58ZM37.6713 356V335H42.7713V356H37.6713ZM40.0413 347.96V343.7H50.9013V347.96H40.0413ZM40.0413 339.5V335H52.1313V339.5H40.0413ZM56.2162 356V335H61.3162V356H56.2162ZM58.5862 347.96V343.7H69.4462V347.96H58.5862ZM58.5862 339.5V335H70.6762V339.5H58.5862ZM84.0374 356.3C82.4574 356.3 80.9974 356.04 79.6574 355.52C78.3374 354.98 77.1874 354.23 76.2074 353.27C75.2274 352.29 74.4674 351.14 73.9274 349.82C73.4074 348.48 73.1474 347.01 73.1474 345.41C73.1474 343.85 73.4274 342.41 73.9874 341.09C74.5474 339.77 75.3174 338.63 76.2974 337.67C77.2974 336.69 78.4674 335.93 79.8074 335.39C81.1674 334.85 82.6474 334.58 84.2474 334.58C85.2474 334.58 86.2274 334.71 87.1874 334.97C88.1474 335.23 89.0374 335.62 89.8574 336.14C90.6974 336.64 91.4174 337.24 92.0174 337.94L88.8974 341.51C88.4774 341.07 88.0274 340.69 87.5474 340.37C87.0874 340.03 86.5774 339.77 86.0174 339.59C85.4574 339.41 84.8574 339.32 84.2174 339.32C83.4174 339.32 82.6574 339.47 81.9374 339.77C81.2374 340.05 80.6174 340.46 80.0774 341C79.5574 341.52 79.1474 342.16 78.8474 342.92C78.5474 343.68 78.3974 344.53 78.3974 345.47C78.3974 346.39 78.5474 347.23 78.8474 347.99C79.1474 348.73 79.5674 349.37 80.1074 349.91C80.6474 350.45 81.2974 350.86 82.0574 351.14C82.8374 351.42 83.6974 351.56 84.6374 351.56C85.2774 351.56 85.8874 351.47 86.4674 351.29C87.0474 351.11 87.5774 350.87 88.0574 350.57C88.5574 350.25 88.9974 349.89 89.3774 349.49L91.8374 353.39C91.3374 353.95 90.6674 354.45 89.8274 354.89C89.0074 355.33 88.0874 355.68 87.0674 355.94C86.0674 356.18 85.0574 356.3 84.0374 356.3ZM99.0175 354.53V337.49L100.128 340.04L95.6275 342.17L94.7575 337.61L100.728 334.7H104.028V354.53H99.0175ZM95.1775 356V351.5H107.958V356H95.1775ZM119.614 356.3C117.734 356.3 116.124 355.87 114.784 355.01C113.464 354.15 112.454 352.92 111.754 351.32C111.054 349.7 110.704 347.76 110.704 345.5C110.704 343.24 111.054 341.31 111.754 339.71C112.454 338.09 113.464 336.85 114.784 335.99C116.124 335.13 117.734 334.7 119.614 334.7C121.494 334.7 123.104 335.13 124.444 335.99C125.784 336.85 126.804 338.09 127.504 339.71C128.204 341.31 128.554 343.24 128.554 345.5C128.554 347.76 128.204 349.7 127.504 351.32C126.804 352.92 125.784 354.15 124.444 355.01C123.104 355.87 121.494 356.3 119.614 356.3ZM119.614 351.98C120.914 351.98 121.914 351.42 122.614 350.3C123.334 349.18 123.694 347.58 123.694 345.5C123.694 343.36 123.334 341.72 122.614 340.58C121.914 339.42 120.914 338.84 119.614 338.84C118.314 338.84 117.304 339.42 116.584 340.58C115.884 341.72 115.534 343.36 115.534 345.5C115.534 347.58 115.884 349.18 116.584 350.3C117.304 351.42 118.314 351.98 119.614 351.98ZM139.858 356.3C137.978 356.3 136.368 355.87 135.028 355.01C133.708 354.15 132.698 352.92 131.998 351.32C131.298 349.7 130.948 347.76 130.948 345.5C130.948 343.24 131.298 341.31 131.998 339.71C132.698 338.09 133.708 336.85 135.028 335.99C136.368 335.13 137.978 334.7 139.858 334.7C141.738 334.7 143.348 335.13 144.688 335.99C146.028 336.85 147.048 338.09 147.748 339.71C148.448 341.31 148.798 343.24 148.798 345.5C148.798 347.76 148.448 349.7 147.748 351.32C147.048 352.92 146.028 354.15 144.688 355.01C143.348 355.87 141.738 356.3 139.858 356.3ZM139.858 351.98C141.158 351.98 142.158 351.42 142.858 350.3C143.578 349.18 143.938 347.58 143.938 345.5C143.938 343.36 143.578 341.72 142.858 340.58C142.158 339.42 141.158 338.84 139.858 338.84C138.558 338.84 137.548 339.42 136.828 340.58C136.128 341.72 135.778 343.36 135.778 345.5C135.778 347.58 136.128 349.18 136.828 350.3C137.548 351.42 138.558 351.98 139.858 351.98Z" fill="white"/>
<path d="M13 359.75H149.998V361.25H13V359.75Z" fill="white"/>
<a href="https://www.color-hex.com/color/ffc100">
<rect fill="black" fill-opacity="0" y="0.25" width="136.998" height="37.5"/>
</a>
<path d="M517.04 356L520.64 335H524.87L521.27 356H517.04ZM507.44 351.5V347.63H525.5V351.5H507.44ZM509.18 356L512.78 335H517.01L513.41 356H509.18ZM508.58 343.1V339.23H526.61V343.1H508.58ZM530.671 356V335H535.771V356H530.671ZM533.041 347.96V343.7H543.901V347.96H533.041ZM533.041 339.5V335H545.131V339.5H533.041ZM549.216 356V335H554.316V356H549.216ZM551.586 347.96V343.7H562.446V347.96H551.586ZM551.586 339.5V335H563.676V339.5H551.586ZM575.591 356V339.02L578.321 339.08L570.731 348.38L570.011 347.48H583.931V351.68H567.731L565.691 347.75L576.401 334.82H580.511V356H575.591ZM587.624 356V335H596.414C597.954 335 599.364 335.26 600.644 335.78C601.924 336.28 603.024 337 603.944 337.94C604.884 338.88 605.604 339.99 606.104 341.27C606.604 342.55 606.854 343.96 606.854 345.5C606.854 347.04 606.604 348.46 606.104 349.76C605.604 351.04 604.884 352.15 603.944 353.09C603.024 354.01 601.924 354.73 600.644 355.25C599.364 355.75 597.954 356 596.414 356H587.624ZM592.724 352.52L592.034 351.5H596.264C597.104 351.5 597.854 351.36 598.514 351.08C599.174 350.78 599.734 350.37 600.194 349.85C600.674 349.33 601.044 348.7 601.304 347.96C601.564 347.22 601.694 346.4 601.694 345.5C601.694 344.6 601.564 343.78 601.304 343.04C601.044 342.3 600.674 341.67 600.194 341.15C599.734 340.63 599.174 340.23 598.514 339.95C597.854 339.65 597.104 339.5 596.264 339.5H591.944L592.724 338.54V352.52ZM618.268 356.3C616.388 356.3 614.778 355.87 613.438 355.01C612.118 354.15 611.108 352.92 610.408 351.32C609.708 349.7 609.358 347.76 609.358 345.5C609.358 343.24 609.708 341.31 610.408 339.71C611.108 338.09 612.118 336.85 613.438 335.99C614.778 335.13 616.388 334.7 618.268 334.7C620.148 334.7 621.758 335.13 623.098 335.99C624.438 336.85 625.458 338.09 626.158 339.71C626.858 341.31 627.208 343.24 627.208 345.5C627.208 347.76 626.858 349.7 626.158 351.32C625.458 352.92 624.438 354.15 623.098 355.01C621.758 355.87 620.148 356.3 618.268 356.3ZM618.268 351.98C619.568 351.98 620.568 351.42 621.268 350.3C621.988 349.18 622.348 347.58 622.348 345.5C622.348 343.36 621.988 341.72 621.268 340.58C620.568 339.42 619.568 338.84 618.268 338.84C616.968 338.84 615.958 339.42 615.238 340.58C614.538 341.72 614.188 343.36 614.188 345.5C614.188 347.58 614.538 349.18 615.238 350.3C615.958 351.42 616.968 351.98 618.268 351.98ZM638.512 356.3C636.632 356.3 635.022 355.87 633.682 355.01C632.362 354.15 631.352 352.92 630.652 351.32C629.952 349.7 629.602 347.76 629.602 345.5C629.602 343.24 629.952 341.31 630.652 339.71C631.352 338.09 632.362 336.85 633.682 335.99C635.022 335.13 636.632 334.7 638.512 334.7C640.392 334.7 642.002 335.13 643.342 335.99C644.682 336.85 645.702 338.09 646.402 339.71C647.102 341.31 647.452 343.24 647.452 345.5C647.452 347.76 647.102 349.7 646.402 351.32C645.702 352.92 644.682 354.15 643.342 355.01C642.002 355.87 640.392 356.3 638.512 356.3ZM638.512 351.98C639.812 351.98 640.812 351.42 641.512 350.3C642.232 349.18 642.592 347.58 642.592 345.5C642.592 343.36 642.232 341.72 641.512 340.58C640.812 339.42 639.812 338.84 638.512 338.84C637.212 338.84 636.202 339.42 635.482 340.58C634.782 341.72 634.432 343.36 634.432 345.5C634.432 347.58 634.782 349.18 635.482 350.3C636.202 351.42 637.212 351.98 638.512 351.98Z" fill="white"/>
<path d="M506 359.75H648.652V361.25H506V359.75Z" fill="white"/>
<a href="https://www.color-hex.com/color/ff4d00">
<rect fill="black" fill-opacity="0" y="0.25" width="142.652" height="37.5"/>
</a>
</svg>
